<svg width="191" height="267" viewBox="0 0 191 267" fill="none" xmlns="http://www.w3.org/2000/svg">
<path d="M65.952 110.84C65.472 110.84 65.232 110.712 65.232 110.456C65.232 110.2 65.456 110.04 65.904 109.976C69.776 109.624 73.296 108.696 76.464 107.192C79.664 105.656 82.176 103.768 84 101.528C85.824 99.288 86.736 96.936 86.736 94.472C86.736 92.584 86.304 90.984 85.44 89.672C84.608 88.328 83.52 87.32 82.176 86.648C80.832 85.976 79.44 85.64 78 85.64C76.08 85.64 74.08 86.12 72 87.08C69.952 88.04 68.384 88.904 67.296 89.672C66.24 90.44 64.864 91.48 63.168 92.792C62.944 92.952 62.464 93.336 61.728 93.944C60.992 94.552 60.256 95.064 59.52 95.48C58.784 95.864 58.112 96.056 57.504 96.056C56.736 96.056 55.904 95.8 55.008 95.288C54.144 94.744 53.392 94.2 52.752 93.656C52.208 93.208 51.936 92.856 51.936 92.6C51.936 92.344 52.144 92.216 52.56 92.216C52.784 92.216 53.232 92.264 53.904 92.36C54.608 92.424 55.104 92.456 55.392 92.456C56.384 92.456 57.36 92.216 58.32 91.736C59.28 91.256 60.56 90.504 62.16 89.48C63.856 88.392 65.376 87.496 66.72 86.792C68.096 86.056 69.712 85.432 71.568 84.92C73.424 84.376 75.456 84.104 77.664 84.104C79.808 84.104 81.824 84.6 83.712 85.592C85.6 86.552 87.104 87.912 88.224 89.672C89.376 91.4 89.952 93.368 89.952 95.576C89.952 97.24 89.456 99.112 88.464 101.192C87.472 103.24 85.2 105.256 81.648 107.24C78.096 109.192 72.864 110.392 65.952 110.84ZM66.96 169.464C66.32 169.464 65.488 169.224 64.464 168.744C63.44 168.264 62.32 167.48 61.104 166.392C58 163.576 56.448 159.576 56.448 154.392C56.448 152.792 56.624 150.824 56.976 148.488C57.168 147.08 57.264 146.12 57.264 145.608C57.264 144.84 57.12 144.152 56.832 143.544C56.576 142.904 56.112 142.28 55.44 141.672C55.248 141.512 55.152 141.384 55.152 141.288C55.152 141.192 55.216 141.128 55.344 141.096C55.472 141.032 55.6 141 55.728 141C56.368 141 57.088 141.208 57.888 141.624C58.72 142.008 59.424 142.536 60 143.208C60.576 143.848 60.864 144.504 60.864 145.176C60.864 145.592 60.784 146.072 60.624 146.616C60.496 147.128 60.336 147.672 60.144 148.248C59.728 149.592 59.408 150.744 59.184 151.704C58.992 152.664 58.896 153.784 58.896 155.064C58.896 156.792 59.216 158.36 59.856 159.768C60.528 161.144 61.296 162.232 62.16 163.032C63.056 163.8 63.824 164.184 64.464 164.184C64.848 164.184 65.104 163.848 65.232 163.176C65.52 161.8 65.824 160.584 66.144 159.528C66.496 158.472 66.768 157.752 66.96 157.368C67.056 157.144 67.168 156.952 67.296 156.792C67.424 156.6 67.536 156.504 67.632 156.504C67.728 156.504 67.776 156.6 67.776 156.792C67.776 156.952 67.744 157.224 67.68 157.608C67.36 159.24 67.2 160.728 67.2 162.072C67.2 162.552 67.216 163.016 67.248 163.464C67.28 163.88 67.312 164.216 67.344 164.472C67.376 165.08 67.552 165.768 67.872 166.536C68.128 167.304 68.256 167.832 68.256 168.12C68.256 168.536 68.144 168.872 67.92 169.128C67.696 169.352 67.376 169.464 66.96 169.464ZM86.88 156.696C86.24 156.696 85.792 156.568 85.536 156.312C85.312 156.056 85.12 155.704 84.96 155.256C84.928 155.192 84.64 154.168 84.096 152.184C83.584 150.168 82.56 148.776 81.024 148.008C80.288 147.624 79.296 147.432 78.048 147.432H77.472C77.184 147.432 77.04 147.336 77.04 147.144C77.04 147.016 77.2 146.888 77.52 146.76C77.648 146.696 77.952 146.616 78.432 146.52C78.944 146.424 79.504 146.376 80.112 146.376C82.352 146.376 84.288 147.16 85.92 148.728C87.072 149.816 87.856 150.904 88.272 151.992C88.688 153.048 88.896 153.864 88.896 154.44C88.896 155.016 88.704 155.544 88.32 156.024C87.968 156.472 87.488 156.696 86.88 156.696ZM83.376 194.152C84.464 194.152 85.472 194.456 86.4 195.064C87.36 195.64 87.84 196.344 87.84 197.176C87.84 197.528 87.728 197.8 87.504 197.992C87.312 198.152 87.056 198.232 86.736 198.232C86.064 198.232 85.168 198.12 84.048 197.896C83.824 197.864 83.392 197.8 82.752 197.704C82.112 197.608 81.584 197.56 81.168 197.56C80.208 197.56 79.28 197.688 78.384 197.944C77.52 198.168 76.896 198.376 76.512 198.568C75.2 199.272 74.016 200.68 72.96 202.792C71.936 204.904 71.136 207.24 70.56 209.8C70.016 212.36 69.744 214.6 69.744 216.52C69.744 219.752 70.288 222.024 71.376 223.336C72.496 224.616 74.176 225.256 76.416 225.256L77.76 225.16C78.72 225.032 79.456 224.968 79.968 224.968C82.272 224.968 83.424 225.528 83.424 226.648C83.424 227.48 82.768 228.04 81.456 228.328C80.176 228.584 78.88 228.712 77.568 228.712C74.912 228.712 72.816 228.28 71.28 227.416C69.776 226.552 68.704 225.24 68.064 223.48C67.424 221.72 67.104 219.416 67.104 216.568C67.104 212.92 67.808 209.48 69.216 206.248C70.656 202.984 72.464 200.312 74.64 198.232L74.256 198.328C73.36 198.52 72.08 198.936 70.416 199.576C68.784 200.216 66.688 201.096 64.128 202.216L62.064 203.08C61.808 203.208 61.248 203.496 60.384 203.944C59.776 204.264 59.296 204.504 58.944 204.664C58.592 204.824 58.224 204.904 57.84 204.904C57.04 204.904 56.176 204.536 55.248 203.8C54.352 203.064 53.664 202.328 53.184 201.592C53.024 201.368 52.944 201.176 52.944 201.016C52.944 200.888 52.992 200.776 53.088 200.68C53.184 200.584 53.296 200.536 53.424 200.536C53.616 200.536 53.824 200.6 54.048 200.728C54.112 200.76 54.384 200.92 54.864 201.208C55.344 201.464 55.936 201.592 56.64 201.592C56.8 201.592 57.072 201.56 57.456 201.496C57.552 201.464 58.528 201.144 60.384 200.536C63.968 199.32 67.248 198.28 70.224 197.416C73.232 196.52 76 195.912 78.528 195.592C79.008 195.528 79.472 195.416 79.92 195.256C80.368 195.064 80.656 194.936 80.784 194.872C81.744 194.392 82.608 194.152 83.376 194.152Z" fill="black"/>
<path d="M147.888 52.952C147.984 52.792 148.128 52.584 148.32 52.328C148.544 52.04 148.72 51.832 148.848 51.704C148.976 51.544 149.104 51.464 149.232 51.464C149.424 51.464 149.824 51.72 150.432 52.232C151.072 52.712 151.664 53.24 152.208 53.816C152.752 54.392 153.024 54.792 153.024 55.016C152.928 55.496 152.544 55.736 151.872 55.736H139.92V57.032C139.952 57.32 139.968 57.672 139.968 58.088L140.112 59.384C140.016 59.672 139.712 59.944 139.2 60.2C138.688 60.424 138.096 60.552 137.424 60.584C137.2 60.584 137.024 60.488 136.896 60.296C136.8 60.104 136.752 59.88 136.752 59.624C136.816 59.048 136.848 58.632 136.848 58.376C136.88 58.216 136.896 58.056 136.896 57.896C136.896 57.736 136.912 57.56 136.944 57.368V55.736H126.816V57.128C126.848 57.416 126.864 57.784 126.864 58.232L127.008 59.576C126.912 59.896 126.592 60.168 126.048 60.392C125.536 60.584 124.976 60.68 124.368 60.68C124.144 60.68 123.968 60.584 123.84 60.392C123.744 60.2 123.696 59.976 123.696 59.72C123.76 59.08 123.792 58.664 123.792 58.472L123.888 57.416V55.736H118.896C116.624 55.768 114.224 55.992 111.696 56.408L110.592 54.008C112.352 54.2 114.48 54.328 116.976 54.392H123.888C123.888 51.992 123.776 50.024 123.552 48.488C125.248 49 126.416 49.416 127.056 49.736C127.728 50.024 128.064 50.28 128.064 50.504C128.064 50.664 127.92 50.824 127.632 50.984L126.816 51.512V54.392H136.944C136.944 51.992 136.832 50.024 136.608 48.488C138.304 49 139.472 49.416 140.112 49.736C140.784 50.024 141.12 50.28 141.12 50.504C141.12 50.664 140.992 50.824 140.736 50.984L139.92 51.512V54.392H146.928L147.888 52.952ZM120.336 71.912C117.616 75.528 114.544 78.488 111.12 80.792L110.544 80.168C113.232 77.672 115.792 74.408 118.224 70.376C119.056 68.968 119.872 67.304 120.672 65.384C121.472 63.464 122.016 61.848 122.304 60.536C125.312 61.88 126.816 62.76 126.816 63.176C126.816 63.304 126.656 63.416 126.336 63.512L125.472 63.752C124.576 65.576 123.456 67.496 122.112 69.512C123.648 70.568 124.416 71.272 124.416 71.624C124.416 71.784 124.272 71.928 123.984 72.056L123.312 72.344V80.264C123.376 84.232 123.504 87.992 123.696 91.544C123.472 91.8 123.072 92.04 122.496 92.264C121.952 92.52 121.408 92.648 120.864 92.648C120.608 92.648 120.368 92.552 120.144 92.36C119.92 92.168 119.808 91.944 119.808 91.688C119.936 89.8 120.048 87.976 120.144 86.216C120.24 84.424 120.304 82.088 120.336 79.208V71.912ZM135.984 75.176C137.488 74.056 138.992 72.824 140.496 71.48C141.68 70.424 142.896 69.144 144.144 67.64C145.392 66.104 146.336 64.76 146.976 63.608C149.376 65.656 150.576 66.904 150.576 67.352C150.576 67.448 150.528 67.512 150.432 67.544C150.336 67.544 150.224 67.544 150.096 67.544L149.184 67.496C147.232 69.384 145.088 71.112 142.752 72.68C140.448 74.216 138.192 75.48 135.984 76.472V87.224C135.984 87.768 136.128 88.152 136.416 88.376C136.704 88.568 137.36 88.664 138.384 88.664H143.664C146.256 88.664 147.936 88.616 148.704 88.52C148.992 88.488 149.2 88.424 149.328 88.328C149.488 88.232 149.632 88.056 149.76 87.8C149.92 87.384 150.144 86.488 150.432 85.112C150.72 83.704 151.008 82.184 151.296 80.552H151.92L152.016 88.088C152.56 88.28 152.912 88.488 153.072 88.712C153.264 88.904 153.36 89.176 153.36 89.528C153.36 90.04 153.104 90.44 152.592 90.728C152.08 91.048 151.12 91.272 149.712 91.4C148.304 91.528 146.256 91.592 143.568 91.592L138 91.544C136.624 91.544 135.584 91.432 134.88 91.208C134.176 91.016 133.68 90.664 133.392 90.152C133.136 89.64 133.008 88.888 133.008 87.896V70.856C133.008 66.824 132.8 63.544 132.384 61.016C135.52 61.912 137.088 62.6 137.088 63.08C137.088 63.176 136.96 63.32 136.704 63.512L135.984 63.992V75.176ZM140.304 128.568C140.368 128.472 140.48 128.312 140.64 128.088C140.8 127.864 140.944 127.704 141.072 127.608C141.2 127.48 141.328 127.416 141.456 127.416C141.744 127.416 142.384 127.912 143.376 128.904C144.368 129.896 144.864 130.568 144.864 130.92C144.544 131.304 143.904 131.56 142.944 131.688V157.848C142.944 158.296 143.024 158.6 143.184 158.76C143.376 158.92 143.76 159 144.336 159H146.928C148.048 159 148.864 158.968 149.376 158.904C149.568 158.872 149.712 158.824 149.808 158.76C149.904 158.696 150 158.552 150.096 158.328C150.32 157.816 150.784 155.416 151.488 151.128H152.112L152.256 158.616C152.704 158.808 153.008 159 153.168 159.192C153.328 159.384 153.408 159.656 153.408 160.008C153.408 160.712 152.944 161.208 152.016 161.496C151.12 161.784 149.392 161.928 146.832 161.928H143.664C142.192 161.928 141.2 161.688 140.688 161.208C140.208 160.728 139.968 159.896 139.968 158.712V131.112H129.696C129.344 136.2 128.704 140.328 127.776 143.496C129.856 144.84 131.408 146.184 132.432 147.528C133.488 148.872 134.016 150.024 134.016 150.984C134.016 151.464 133.888 151.848 133.632 152.136C133.408 152.392 133.072 152.52 132.624 152.52C132.272 152.52 131.952 152.456 131.664 152.328C130.64 150.536 128.976 148.648 126.672 146.664C125.328 149.896 123.408 152.856 120.912 155.544C118.448 158.2 115.232 160.584 111.264 162.696L110.688 161.88C114.304 159.544 117.2 156.968 119.376 154.152C121.552 151.304 123.2 148.168 124.32 144.744C121.44 142.504 118.432 140.632 115.296 139.128L115.728 138.504C119.28 139.496 122.4 140.664 125.088 142.008C125.792 139 126.256 135.368 126.48 131.112H121.2C118.928 131.144 116.528 131.368 114 131.784L112.704 129.288C114.464 129.48 116.592 129.608 119.088 129.672H126.576C126.576 129.192 126.592 128.824 126.624 128.568C126.656 126.904 126.608 125.16 126.48 123.336C126.384 121.512 126.24 119.96 126.048 118.68C127.968 118.872 129.296 119.064 130.032 119.256C130.768 119.416 131.136 119.608 131.136 119.832C131.136 119.928 131.008 120.072 130.752 120.264L129.984 120.792C129.92 124.792 129.84 127.752 129.744 129.672H139.488L140.304 128.568ZM122.56 217.24C122.187 217.24 121.773 217.04 121.32 216.64C120.893 216.213 120.587 215.72 120.4 215.16C119.413 212.52 118.92 209.227 118.92 205.28C118.92 203.493 119.053 201.893 119.32 200.48C119.587 199.067 119.947 197.6 120.4 196.08C120.587 195.36 120.76 194.653 120.92 193.96C121.08 193.267 121.16 192.667 121.16 192.16C121.16 191.653 121.067 191.133 120.88 190.6C120.693 190.067 120.453 189.64 120.16 189.32C119.947 189.027 119.84 188.827 119.84 188.72C119.84 188.587 119.893 188.52 120 188.52C120.16 188.52 120.373 188.6 120.64 188.76C121.52 189.32 122.213 189.987 122.72 190.76C123.253 191.533 123.52 192.52 123.52 193.72C123.52 194.227 123.44 194.747 123.28 195.28C123.12 195.813 122.933 196.333 122.72 196.84C122.507 197.347 122.373 197.68 122.32 197.84C121.707 199.227 121.293 200.36 121.08 201.24C120.813 202.28 120.68 203.333 120.68 204.4C120.68 205.093 120.733 205.747 120.84 206.36C120.947 206.947 121.107 207.24 121.32 207.24C121.453 207.24 121.68 206.973 122 206.44L122.72 204.96L124.08 202.24C124.267 201.947 124.4 201.8 124.48 201.8C124.56 201.8 124.6 201.853 124.6 201.96L124.48 202.44C124.133 203.373 123.747 204.587 123.32 206.08C122.893 207.547 122.68 208.773 122.68 209.76C122.68 210.907 122.907 212.613 123.36 214.88C123.493 215.6 123.56 216.027 123.56 216.16C123.56 216.507 123.453 216.773 123.24 216.96C123.027 217.147 122.8 217.24 122.56 217.24ZM137.04 194.72C135.867 194.72 134.907 194.613 134.16 194.4C133.28 194.16 132.493 193.813 131.8 193.36C131.133 192.907 130.68 192.44 130.44 191.96C130.333 191.747 130.28 191.587 130.28 191.48C130.28 191.4 130.32 191.36 130.4 191.36C130.48 191.36 130.613 191.427 130.8 191.56C131.013 191.693 131.213 191.8 131.4 191.88C132.253 192.227 133.213 192.4 134.28 192.4C135.027 192.4 136.04 192.32 137.32 192.16C138.627 192 139.707 191.827 140.56 191.64C140.88 191.533 141.133 191.48 141.32 191.48C141.827 191.48 142.293 191.64 142.72 191.96C143.147 192.253 143.36 192.573 143.36 192.92C143.36 193.533 142.68 193.987 141.32 194.28C139.96 194.573 138.533 194.72 137.04 194.72ZM138.44 215.36C136.387 215.36 134.587 215.093 133.04 214.56C131.493 214 130.4 212.907 129.76 211.28C129.6 210.88 129.52 210.64 129.52 210.56C129.52 210.453 129.573 210.4 129.68 210.4C129.76 210.4 129.853 210.453 129.96 210.56C130.093 210.64 130.2 210.707 130.28 210.76C131.32 211.56 132.48 212.12 133.76 212.44C134.373 212.6 135.293 212.68 136.52 212.68C137.88 212.68 139.653 212.52 141.84 212.2C142.747 212.093 143.2 212.04 143.2 212.04C143.813 212.04 144.307 212.2 144.68 212.52C145.08 212.84 145.28 213.187 145.28 213.56C145.28 214.28 144.64 214.76 143.36 215C142.107 215.24 140.467 215.36 138.44 215.36Z" fill="black"/>
<path d="M1 121.5V266.5" stroke="black"/>
<path d="M190.5 0V145" stroke="black"/>
</svg>
