<svg width="191" height="267" viewBox="0 0 191 267" fill="none" xmlns="http://www.w3.org/2000/svg">
<path d="M76.64 83.192C76.768 83.064 76.928 82.888 77.12 82.664C77.344 82.408 77.52 82.232 77.648 82.136C77.776 82.008 77.904 81.944 78.032 81.944C78.32 81.944 78.928 82.488 79.856 83.576C80.816 84.664 81.296 85.384 81.296 85.736C81.168 85.96 80.944 86.12 80.624 86.216C80.336 86.28 79.872 86.328 79.232 86.36C75.328 93.24 69.952 98.92 63.104 103.4L63.392 103.544H81.392L82.16 102.536C82.256 102.44 82.416 102.248 82.64 101.96C82.896 101.672 83.12 101.528 83.312 101.528C83.504 101.528 83.904 101.736 84.512 102.152C85.12 102.568 85.68 103.032 86.192 103.544C86.704 104.024 86.96 104.376 86.96 104.6C86.768 104.792 86.48 104.984 86.096 105.176C85.744 105.336 85.36 105.464 84.944 105.56V110.84C85.04 115.288 85.152 118.728 85.28 121.16C85.088 121.48 84.672 121.784 84.032 122.072C83.424 122.392 82.864 122.552 82.352 122.552C82.128 122.552 81.952 122.456 81.824 122.264C81.728 122.072 81.68 121.848 81.68 121.592C81.68 121.56 81.744 121.096 81.872 120.2V119H62.816V119.912C62.848 120.232 62.864 120.52 62.864 120.776C62.896 121.064 62.928 121.272 62.96 121.4C62.864 121.688 62.576 121.976 62.096 122.264C61.616 122.552 61.04 122.696 60.368 122.696C60.112 122.696 59.888 122.6 59.696 122.408C59.504 122.216 59.408 121.992 59.408 121.736C59.632 118.568 59.776 115.048 59.84 111.176V105.416C55.872 107.624 51.584 109.432 46.976 110.84L46.592 110.12C53.28 107.464 59.264 103.848 64.544 99.272H64.352C63.968 99.272 63.6 99.16 63.248 98.936C62.832 97.784 62.048 96.52 60.896 95.144C59.776 93.768 58.544 92.504 57.2 91.352C54.16 93.912 51.088 95.928 47.984 97.4L47.552 96.824C49.44 95.608 51.312 94.12 53.168 92.36C55.056 90.6 56.8 88.712 58.4 86.696C59.424 85.416 60.352 84.008 61.184 82.472C62.048 80.904 62.656 79.48 63.008 78.2C66.208 79.448 67.808 80.264 67.808 80.648C67.808 80.744 67.648 80.824 67.328 80.888L66.416 80.984C65.712 82.136 64.896 83.272 63.968 84.392H75.584L76.64 83.192ZM62.864 85.736C61.616 87.24 60.032 88.872 58.112 90.632C60.704 91.56 62.608 92.68 63.824 93.992C65.072 95.304 65.696 96.504 65.696 97.592C65.696 97.816 65.664 98.056 65.6 98.312C69.856 94.408 73.152 90.216 75.488 85.736H62.864ZM62.816 104.936V117.608H81.872V104.936H62.816ZM61.04 156.456C62.576 157.864 63.792 159.016 64.688 159.912V159.96L65.552 157.992C66.128 156.552 66.624 154.92 67.04 153.096C67.488 151.272 67.744 149.672 67.808 148.296C71.04 149.256 72.656 149.944 72.656 150.36C72.656 150.52 72.496 150.648 72.176 150.744L71.264 151.128C70.56 153.592 69.584 156.008 68.336 158.376H84.224L84.944 157.32C85.04 157.192 85.152 157.032 85.28 156.84C85.44 156.648 85.568 156.504 85.664 156.408C85.792 156.312 85.92 156.264 86.048 156.264C86.24 156.264 86.608 156.472 87.152 156.888C87.728 157.304 88.256 157.768 88.736 158.28C89.216 158.76 89.456 159.112 89.456 159.336C89.136 159.752 88.496 160.024 87.536 160.152C87.216 168.28 86.64 174.984 85.808 180.264C84.976 185.544 83.936 188.888 82.688 190.296C81.344 191.896 79.472 192.664 77.072 192.6C77.072 191.448 76.768 190.68 76.16 190.296C75.808 190.008 75.152 189.736 74.192 189.48C73.264 189.224 72.272 189.016 71.216 188.856L71.264 187.944C72.544 188.104 73.904 188.264 75.344 188.424C76.816 188.552 77.808 188.616 78.32 188.616C78.832 188.616 79.232 188.568 79.52 188.472C79.808 188.344 80.128 188.136 80.48 187.848C81.472 186.92 82.32 183.944 83.024 178.92C83.76 173.896 84.32 167.496 84.704 159.72H81.68C80.624 166.344 78.72 172.232 75.968 177.384C73.216 182.504 69.376 186.792 64.448 190.248L63.968 189.624C68.064 185.912 71.296 181.512 73.664 176.424C76.064 171.304 77.632 165.736 78.368 159.72H74.912C73.76 164.168 72 168.248 69.632 171.96C67.264 175.672 64.336 178.808 60.848 181.368L60.368 180.744C63.184 178.056 65.568 174.888 67.52 171.24C69.472 167.56 70.864 163.72 71.696 159.72H67.568C65.68 163.112 63.328 165.896 60.512 168.072L59.888 167.544C61.52 165.688 63.072 163.256 64.544 160.248C64.32 160.536 63.968 160.68 63.488 160.68H57.776V171.528L64.352 169.176L64.592 169.896L57.776 173.592V180.024C57.84 183.992 57.968 187.752 58.16 191.304C57.968 191.656 57.6 191.976 57.056 192.264C56.512 192.552 55.968 192.696 55.424 192.696C55.136 192.696 54.88 192.6 54.656 192.408C54.464 192.216 54.368 191.992 54.368 191.736C54.592 188.504 54.736 184.936 54.8 181.032V175.176L49.568 177.864C49.408 178.44 49.088 178.84 48.608 179.064L46.832 175.032C48.432 174.648 51.088 173.816 54.8 172.536V160.68H51.152C50.032 164.04 48.8 166.696 47.456 168.648L46.736 168.216C47.408 166.456 48.032 164.28 48.608 161.688C48.896 160.44 49.12 159.032 49.28 157.464C49.472 155.864 49.568 154.392 49.568 153.048C49.568 152.28 49.552 151.72 49.52 151.368C51.216 151.688 52.4 151.96 53.072 152.184C53.744 152.408 54.08 152.616 54.08 152.808C54.08 152.936 53.952 153.08 53.696 153.24L52.88 153.672C52.368 156.168 51.92 158.024 51.536 159.24H54.8V158.28C54.8 154.248 54.592 150.968 54.176 148.44C55.936 148.952 57.168 149.384 57.872 149.736C58.576 150.056 58.928 150.328 58.928 150.552C58.928 150.712 58.8 150.872 58.544 151.032L57.776 151.56V159.24H58.976L61.04 156.456Z" fill="black"/>
<path d="M139.888 54.952C139.984 54.792 140.128 54.584 140.32 54.328C140.544 54.04 140.72 53.832 140.848 53.704C140.976 53.544 141.104 53.464 141.232 53.464C141.424 53.464 141.824 53.72 142.432 54.232C143.072 54.712 143.664 55.24 144.208 55.816C144.752 56.392 145.024 56.792 145.024 57.016C144.928 57.496 144.544 57.736 143.872 57.736H131.92V59.032C131.952 59.32 131.968 59.672 131.968 60.088L132.112 61.384C132.016 61.672 131.712 61.944 131.2 62.2C130.688 62.424 130.096 62.552 129.424 62.584C129.2 62.584 129.024 62.488 128.896 62.296C128.8 62.104 128.752 61.88 128.752 61.624C128.816 61.048 128.848 60.632 128.848 60.376C128.88 60.216 128.896 60.056 128.896 59.896C128.896 59.736 128.912 59.56 128.944 59.368V57.736H118.816V59.128C118.848 59.416 118.864 59.784 118.864 60.232L119.008 61.576C118.912 61.896 118.592 62.168 118.048 62.392C117.536 62.584 116.976 62.68 116.368 62.68C116.144 62.68 115.968 62.584 115.84 62.392C115.744 62.2 115.696 61.976 115.696 61.72C115.76 61.08 115.792 60.664 115.792 60.472L115.888 59.416V57.736H110.896C108.624 57.768 106.224 57.992 103.696 58.408L102.592 56.008C104.352 56.2 106.48 56.328 108.976 56.392H115.888C115.888 53.992 115.776 52.024 115.552 50.488C117.248 51 118.416 51.416 119.056 51.736C119.728 52.024 120.064 52.28 120.064 52.504C120.064 52.664 119.92 52.824 119.632 52.984L118.816 53.512V56.392H128.944C128.944 53.992 128.832 52.024 128.608 50.488C130.304 51 131.472 51.416 132.112 51.736C132.784 52.024 133.12 52.28 133.12 52.504C133.12 52.664 132.992 52.824 132.736 52.984L131.92 53.512V56.392H138.928L139.888 54.952ZM112.336 73.912C109.616 77.528 106.544 80.488 103.12 82.792L102.544 82.168C105.232 79.672 107.792 76.408 110.224 72.376C111.056 70.968 111.872 69.304 112.672 67.384C113.472 65.464 114.016 63.848 114.304 62.536C117.312 63.88 118.816 64.76 118.816 65.176C118.816 65.304 118.656 65.416 118.336 65.512L117.472 65.752C116.576 67.576 115.456 69.496 114.112 71.512C115.648 72.568 116.416 73.272 116.416 73.624C116.416 73.784 116.272 73.928 115.984 74.056L115.312 74.344V82.264C115.376 86.232 115.504 89.992 115.696 93.544C115.472 93.8 115.072 94.04 114.496 94.264C113.952 94.52 113.408 94.648 112.864 94.648C112.608 94.648 112.368 94.552 112.144 94.36C111.92 94.168 111.808 93.944 111.808 93.688C111.936 91.8 112.048 89.976 112.144 88.216C112.24 86.424 112.304 84.088 112.336 81.208V73.912ZM127.984 77.176C129.488 76.056 130.992 74.824 132.496 73.48C133.68 72.424 134.896 71.144 136.144 69.64C137.392 68.104 138.336 66.76 138.976 65.608C141.376 67.656 142.576 68.904 142.576 69.352C142.576 69.448 142.528 69.512 142.432 69.544C142.336 69.544 142.224 69.544 142.096 69.544L141.184 69.496C139.232 71.384 137.088 73.112 134.752 74.68C132.448 76.216 130.192 77.48 127.984 78.472V89.224C127.984 89.768 128.128 90.152 128.416 90.376C128.704 90.568 129.36 90.664 130.384 90.664H135.664C138.256 90.664 139.936 90.616 140.704 90.52C140.992 90.488 141.2 90.424 141.328 90.328C141.488 90.232 141.632 90.056 141.76 89.8C141.92 89.384 142.144 88.488 142.432 87.112C142.72 85.704 143.008 84.184 143.296 82.552H143.92L144.016 90.088C144.56 90.28 144.912 90.488 145.072 90.712C145.264 90.904 145.36 91.176 145.36 91.528C145.36 92.04 145.104 92.44 144.592 92.728C144.08 93.048 143.12 93.272 141.712 93.4C140.304 93.528 138.256 93.592 135.568 93.592L130 93.544C128.624 93.544 127.584 93.432 126.88 93.208C126.176 93.016 125.68 92.664 125.392 92.152C125.136 91.64 125.008 90.888 125.008 89.896V72.856C125.008 68.824 124.8 65.544 124.384 63.016C127.52 63.912 129.088 64.6 129.088 65.08C129.088 65.176 128.96 65.32 128.704 65.512L127.984 65.992V77.176ZM132.304 130.568C132.368 130.472 132.48 130.312 132.64 130.088C132.8 129.864 132.944 129.704 133.072 129.608C133.2 129.48 133.328 129.416 133.456 129.416C133.744 129.416 134.384 129.912 135.376 130.904C136.368 131.896 136.864 132.568 136.864 132.92C136.544 133.304 135.904 133.56 134.944 133.688V159.848C134.944 160.296 135.024 160.6 135.184 160.76C135.376 160.92 135.76 161 136.336 161H138.928C140.048 161 140.864 160.968 141.376 160.904C141.568 160.872 141.712 160.824 141.808 160.76C141.904 160.696 142 160.552 142.096 160.328C142.32 159.816 142.784 157.416 143.488 153.128H144.112L144.256 160.616C144.704 160.808 145.008 161 145.168 161.192C145.328 161.384 145.408 161.656 145.408 162.008C145.408 162.712 144.944 163.208 144.016 163.496C143.12 163.784 141.392 163.928 138.832 163.928H135.664C134.192 163.928 133.2 163.688 132.688 163.208C132.208 162.728 131.968 161.896 131.968 160.712V133.112H121.696C121.344 138.2 120.704 142.328 119.776 145.496C121.856 146.84 123.408 148.184 124.432 149.528C125.488 150.872 126.016 152.024 126.016 152.984C126.016 153.464 125.888 153.848 125.632 154.136C125.408 154.392 125.072 154.52 124.624 154.52C124.272 154.52 123.952 154.456 123.664 154.328C122.64 152.536 120.976 150.648 118.672 148.664C117.328 151.896 115.408 154.856 112.912 157.544C110.448 160.2 107.232 162.584 103.264 164.696L102.688 163.88C106.304 161.544 109.2 158.968 111.376 156.152C113.552 153.304 115.2 150.168 116.32 146.744C113.44 144.504 110.432 142.632 107.296 141.128L107.728 140.504C111.28 141.496 114.4 142.664 117.088 144.008C117.792 141 118.256 137.368 118.48 133.112H113.2C110.928 133.144 108.528 133.368 106 133.784L104.704 131.288C106.464 131.48 108.592 131.608 111.088 131.672H118.576C118.576 131.192 118.592 130.824 118.624 130.568C118.656 128.904 118.608 127.16 118.48 125.336C118.384 123.512 118.24 121.96 118.048 120.68C119.968 120.872 121.296 121.064 122.032 121.256C122.768 121.416 123.136 121.608 123.136 121.832C123.136 121.928 123.008 122.072 122.752 122.264L121.984 122.792C121.92 126.792 121.84 129.752 121.744 131.672H131.488L132.304 130.568ZM124.68 191.12C126.893 191.12 129.12 191.587 131.36 192.52C133.6 193.427 135.48 194.907 137 196.96C138.547 198.987 139.32 201.587 139.32 204.76C139.32 208.92 138.04 212.093 135.48 214.28C132.947 216.467 130.227 217.893 127.32 218.56C124.44 219.2 122.027 219.52 120.08 219.52C119.707 219.52 119.52 219.453 119.52 219.32C119.52 219.16 120.053 218.987 121.12 218.8C125.68 218 129.387 216.467 132.24 214.2C135.093 211.933 136.52 208.733 136.52 204.6C136.52 201.773 135.907 199.453 134.68 197.64C133.48 195.8 131.947 194.467 130.08 193.64C128.213 192.787 126.267 192.36 124.24 192.36C123.787 192.36 123.453 192.373 123.24 192.4C123.587 193.093 123.853 193.933 124.04 194.92C124.227 195.907 124.32 196.8 124.32 197.6C124.32 199.573 123.84 201.84 122.88 204.4C122 206.773 120.987 208.84 119.84 210.6C118.72 212.333 117.627 213.653 116.56 214.56C115.52 215.44 114.68 215.88 114.04 215.88C113.08 215.88 112.173 215.413 111.32 214.48C110.493 213.52 109.827 212.267 109.32 210.72C108.84 209.173 108.6 207.56 108.6 205.88C108.6 203 109.36 200.44 110.88 198.2C112.4 195.933 114.4 194.187 116.88 192.96C119.36 191.733 121.96 191.12 124.68 191.12ZM123.04 195.6C123.04 194.427 122.893 193.387 122.6 192.48C120.52 192.747 118.587 193.467 116.8 194.64C115.04 195.787 113.627 197.307 112.56 199.2C111.493 201.093 110.96 203.227 110.96 205.6C110.96 207.2 111.147 208.533 111.52 209.6C111.92 210.667 112.36 211.453 112.84 211.96C113.32 212.467 113.707 212.72 114 212.72C114.667 212.72 115.453 212.227 116.36 211.24C117.293 210.227 118.147 209.107 118.92 207.88C120.413 205.56 121.467 203.427 122.08 201.48C122.72 199.507 123.04 197.547 123.04 195.6Z" fill="black"/>
<path d="M1 121.5V266.5" stroke="black"/>
<path d="M190.5 0V145" stroke="black"/>
</svg>
